HIERARCHY
ROOT Hips
{
    OFFSET 0.000000 0.000000 0.000000
    CHANNELS 6 Xposition Yposition Zposition Zrotation Xrotation Yrotation
    JOINT Spine
    {
        OFFSET -0.000000 7.856138 0.000000
        CHANNELS 3 Zrotation Xrotation Yrotation
        JOINT Spine1
        {
            OFFSET -0.000000 20.830866 0.000000
            CHANNELS 3 Zrotation Xrotation Yrotation
            JOINT Neck
            {
                OFFSET -0.000000 20.745317 1.885938
                CHANNELS 3 Zrotation Xrotation Yrotation
                JOINT Head
                {
                    OFFSET -0.000000 13.412918 -1.916131
                    CHANNELS 3 Zrotation Xrotation Yrotation
                    End Site
                    {
                        OFFSET -0.000000 23.951641 0.000000
                    }
                }
            }
            JOINT LeftShoulder
            {
                OFFSET 3.826675 19.078362 -0.073511
                CHANNELS 3 Zrotation Xrotation Yrotation
                JOINT LeftArm
                {
                    OFFSET 10.442133 0.000000 0.000000
                    CHANNELS 3 Zrotation Xrotation Yrotation
                    JOINT LeftForeArm
                    {
                        OFFSET 37.051945 0.000000 0.000000
                        CHANNELS 3 Zrotation Xrotation Yrotation
                        JOINT LeftHand
                        {
                            OFFSET 24.394852 0.000000 0.000000
                            CHANNELS 3 Zrotation Xrotation Yrotation
                            End Site
                            {
                                OFFSET 14.370985 0.000000 0.000000
                            }
                        }
                    }
                }
            }
            JOINT RightShoulder
            {
                OFFSET -3.827599 19.078362 -0.073511
                CHANNELS 3 Zrotation Xrotation Yrotation
                JOINT RightArm
                {
                    OFFSET -10.442133 0.000000 0.000000
                    CHANNELS 3 Zrotation Xrotation Yrotation
                    JOINT RightForeArm
                    {
                        OFFSET -37.051945 0.000000 0.000000
                        CHANNELS 3 Zrotation Xrotation Yrotation
                        JOINT RightHand
                        {
                            OFFSET -24.394852 0.000000 0.000000
                            CHANNELS 3 Zrotation Xrotation Yrotation
                            End Site
                            {
                                OFFSET -14.370985 0.000000 0.000000
                            }
                        }
                    }
                }
            }
        }
    }
    JOINT LeftUpLeg
    {
        OFFSET 9.580656 0.000000 0.000000
        CHANNELS 3 Zrotation Xrotation Yrotation
        JOINT LeftLeg
        {
            OFFSET -0.000000 -43.769192 0.000000
            CHANNELS 3 Zrotation Xrotation Yrotation
            JOINT LeftFoot
            {
                OFFSET -0.000000 -42.531967 0.000000
                CHANNELS 3 Zrotation Xrotation Yrotation
                JOINT LeftToeBase
                {
                    OFFSET -0.000000 -6.227426 14.370985
                    CHANNELS 3 Zrotation Xrotation Yrotation
                    End Site
                    {
                        OFFSET -0.000000 0.000000 3.832262
                    }
                }
            }
        }
    }
    JOINT RightUpLeg
    {
        OFFSET -9.580656 0.000000 0.000000
        CHANNELS 3 Zrotation Xrotation Yrotation
        JOINT RightLeg
        {
            OFFSET -0.000000 -43.769192 0.000000
            CHANNELS 3 Zrotation Xrotation Yrotation
            JOINT RightFoot
            {
                OFFSET -0.000000 -42.531967 0.000000
                CHANNELS 3 Zrotation Xrotation Yrotation
                JOINT RightToeBase
                {
                    OFFSET -0.000000 -6.227426 14.370985
                    CHANNELS 3 Zrotation Xrotation Yrotation
                    End Site
                    {
                        OFFSET -0.000000 0.000000 3.832262
                    }
                }
            }
        }
    }
}
MOTION
Frames:    9
Frame Time:    0.008333
-14.255084    93.295753    28.783884    -0.652337    -1.258466    88.824379    0.328504    -7.477319    1.182274    1.652906    5.053986    1.087930    2.269568    2.121467    -2.840270    2.426973    2.247384    -2.951593    12.889088    -1.592245    5.920104    -12.562029    5.676744    -14.287178    5.556723    -7.920012    -3.742133    8.494082    -7.302914    5.932191    -16.302025    0.736352    -0.242217    18.123730    0.878099    3.075264    -2.909649    -2.253593    2.645878    -10.968899    -1.941056    -2.556941    5.241587    4.848954    0.827143    -4.161576    0.775743    -0.147869    2.128777    -6.900787    20.310068    0.000000    0.000000    0.000000    0.386375    0.638058    0.391830    3.566880    4.535824    -1.539275    -1.367251    -7.050902    -10.616042    0.000000    0.000000    0.000000    
-14.262188    93.299011    28.767019    -0.650101    -1.249823    88.863739    0.357381    -7.434172    1.160604    1.642239    5.006010    1.065632    2.267771    2.152859    -2.830746    2.417152    2.279431    -2.942673    12.876953    -1.550194    5.966952    -12.583245    5.626448    -14.320287    5.563806    -8.076057    -3.774077    8.363055    -7.462915    5.949414    -16.314772    0.764740    -0.204613    18.129457    0.862403    3.079240    -2.936693    -2.254432    2.647141    -10.825968    -1.944484    -2.556625    5.226573    4.843877    0.819641    -4.164321    0.766200    -0.180862    2.150532    -6.874827    20.310488    0.000000    0.000000    0.000000    0.369553    0.638977    0.350513    3.563348    4.536537    -1.522886    -1.337702    -7.047970    -10.639083    0.000000    0.000000    0.000000    
-14.267707    93.301552    28.752930    -0.650568    -1.244384    88.896858    0.357906    -7.428201    1.167566    1.676360    5.015767    1.070907    2.228338    2.073799    -2.856450    2.477533    2.442425    -2.961985    12.855979    -1.543012    5.956561    -12.622472    5.553724    -14.355265    5.579102    -8.229177    -3.792781    8.235256    -7.618731    5.987732    -16.315424    0.755141    -0.227984    18.116825    0.900287    3.069925    -2.919977    -2.262825    2.668919    -10.877036    -1.959048    -2.478026    5.215599    4.835392    0.841276    -4.161149    0.769263    -0.240360    2.123356    -6.873148    20.310768    0.000000    0.000000    0.000000    0.362002    0.639808    0.330299    3.551670    4.526610    -1.574295    -1.358793    -7.032571    -10.585810    0.000000    0.000000    0.000000    
-14.274851    93.304405    28.737408    -0.651381    -1.233605    88.938316    0.316604    -7.440746    1.205298    1.754444    5.067297    1.107107    2.276717    2.002613    -2.906003    2.421168    2.522428    -3.029876    12.843434    -1.587675    5.871402    -12.685321    5.479382    -14.395172    5.636879    -8.441863    -3.808433    7.887329    -7.845651    6.010406    -16.279909    0.747928    -0.344871    18.064014    0.910990    3.076412    -2.919816    -2.368195    2.709714    -10.939540    -2.044920    -2.656911    5.189847    4.820848    0.842465    -4.147721    0.770410    -0.250638    2.109442    -6.854503    20.295593    0.000000    0.000000    0.000000    0.342591    0.642284    0.340206    3.553599    4.514762    -1.592841    -1.336825    -7.020621    -10.615552    0.000000    0.000000    0.000000    
-14.283979    93.306747    28.721523    -0.657070    -1.226201    88.976173    0.348437    -7.416117    1.202077    1.742713    5.028381    1.103002    2.254443    2.005778    -2.926965    2.454037    2.606452    -3.046535    12.817662    -1.586778    5.848872    -12.711460    5.431697    -14.385686    5.706411    -8.717639    -3.846608    7.151236    -8.157684    5.984472    -16.264137    0.782676    -0.327063    18.055517    0.856918    3.078050    -2.900404    -2.452505    2.740074    -11.116988    -2.107036    -2.839316    5.171629    4.805583    0.833519    -4.139889    0.761016    -0.276139    2.106851    -6.847161    20.291744    0.000000    0.000000    0.000000    0.325214    0.638577    0.332285    3.559095    4.501547    -1.585077    -1.349836    -7.006623    -10.656733    0.000000    0.000000    0.000000    
-14.294270    93.307854    28.708595    -0.663993    -1.221048    89.021011    0.360499    -7.429954    1.194954    1.759825    5.067361    1.093720    2.238645    1.959927    -2.937566    2.474450    2.705438    -3.056091    12.800400    -1.601438    5.867584    -12.744880    5.370419    -14.426319    5.756557    -8.956215    -3.868455    6.797442    -8.406116    6.088232    -16.277498    0.768426    -0.336724    18.068249    0.851994    3.092628    -2.910724    -2.464735    2.757571    -11.106652    -2.116871    -2.859347    5.162542    4.778582    0.826337    -4.142406    0.775680    -0.296391    2.143161    -6.833583    20.279066    0.000000    0.000000    0.000000    0.317262    0.633756    0.330097    3.553592    4.492094    -1.623140    -1.341843    -7.003074    -10.664342    0.000000    0.000000    0.000000    
-14.302799    93.307968    28.695402    -0.663283    -1.217859    89.065681    0.380620    -7.430056    1.191365    1.766681    5.094763    1.088086    2.222364    1.863546    -2.948298    2.484719    2.888328    -3.069763    12.794003    -1.626450    5.857532    -12.786624    5.310824    -14.434213    5.805974    -9.190681    -3.902471    6.367677    -8.655062    6.182075    -16.284966    0.769504    -0.346764    18.080097    0.839019    3.108831    -2.917488    -2.338601    2.740376    -10.960469    -2.012307    -2.675396    5.152128    4.766767    0.809389    -4.138110    0.774619    -0.313175    2.156113    -6.825996    20.270918    0.000000    0.000000    0.000000    0.310633    0.630033    0.285229    3.543871    4.500316    -1.609214    -1.345533    -6.998169    -10.668356    0.000000    0.000000    0.000000    
-14.313154    93.308220    28.683334    -0.675072    -1.216414    89.109451    0.387988    -7.439573    1.185103    1.797699    5.116011    1.079635    2.209773    1.930940    -2.986554    2.469386    2.827506    -3.107095    12.775339    -1.629086    5.860589    -12.825993    5.247949    -14.460729    5.828014    -9.424644    -3.929544    6.085202    -8.898704    6.252009    -16.301432    0.766909    -0.362269    18.098000    0.883229    3.150310    -2.933745    -2.308846    2.685299    -10.899843    -1.996775    -2.552236    5.175009    4.762416    0.763919    -4.199419    0.727998    -0.323125    2.186630    -6.791564    20.283819    0.000000    0.000000    0.000000    0.304986    0.612939    0.248868    3.537539    4.502562    -1.617548    -1.345199    -6.991756    -10.661087    0.000000    0.000000    0.000000    
-14.324416    93.307899    28.671131    -0.684622    -1.212309    89.152824    0.401438    -7.459705    1.171315    1.817656    5.169132    1.063130    1.991770    1.924289    -3.037112    2.781510    2.906666    -3.096141    12.758438    -1.635941    5.884669    -12.866150    5.160293    -14.484111    5.764297    -9.721100    -4.023050    6.179845    -9.175474    6.486398    -16.327465    0.763138    -0.367836    18.123175    0.875131    3.187841    -2.963991    -2.235660    2.678363    -10.714845    -1.932816    -2.492115    5.136154    4.710727    0.790600    -4.134575    0.782959    -0.343497    2.149171    -6.815229    20.246786    0.000000    0.000000    0.000000    0.296067    0.595364    0.233199    3.536133    4.511045    -1.623356    -1.347212    -6.991884    -10.680532    0.000000    0.000000    0.000000    
